<svg width="29" height="36" viewBox="0 0 29 36" fill="none" xmlns="http://www.w3.org/2000/svg">
<path d="M27.5998 35.9997C27.4135 35.9997 27.2266 35.9564 27.0555 35.8691L14.3999 29.4261L1.74432 35.8691C1.37284 36.0589 0.928118 36.0413 0.573043 35.8228C0.216795 35.6048 0 35.2169 0 34.7997V5.03668C0 2.25936 2.25936 0 5.03668 0H23.7631C26.5404 0 28.7998 2.25936 28.7998 5.03668V34.7997C28.7998 35.2169 28.583 35.6048 28.2267 35.8228C28.0351 35.9405 27.8178 35.9997 27.5998 35.9997ZM14.3999 26.8797C14.5868 26.8797 14.7731 26.923 14.9442 27.0103L26.3998 32.8421V5.03668C26.3998 3.58298 25.2168 2.39998 23.7631 2.39998H5.03668C3.58298 2.39998 2.39998 3.58298 2.39998 5.03668V32.8421L13.8556 27.0103C14.0267 26.923 14.213 26.8797 14.3999 26.8797Z" fill="black"/>
</svg>
